<svg width="111" height="108" viewBox="0 0 111 108" fill="none" xmlns="http://www.w3.org/2000/svg">
<path fill-rule="evenodd" clip-rule="evenodd" d="M106.664 47.8333L107.77 47.3828C107.085 45.6792 106.266 44.0639 105.334 42.5409C105.334 42.5409 101.689 36.0587 94.0796 27.9372C86.4714 19.8177 74.896 10.0432 59.0103 3.42581C58.4577 3.19578 59.0705 3.45746 59.0705 3.45746C54.2352 1.20614 48.8486 0.000385964 43.3137 0C38.802 0 34.1914 0.802033 29.7061 2.49371C19.7258 6.25686 12.3481 13.6778 8.72158 22.4515L8.7419 22.4048C1.76878 37.4412 0.000383518 51.9947 0 62.9067C0.000767035 74.1321 1.87042 81.5155 1.90915 81.6707L3.06546 81.372L1.89918 81.6286C2.27503 83.3585 2.79815 85.0799 3.48004 86.7778C6.13935 93.3974 10.8041 98.7122 16.5706 102.359C22.3388 106.008 29.2106 108 36.3272 108C36.9822 108 37.6388 107.983 38.2973 107.949L38.2359 106.749L38.2578 107.951C38.4058 107.948 61.9297 107.484 92.4546 88.8886C92.9601 88.5806 92.4351 88.8994 92.4351 88.8994C103.45 82.4546 110.07 71.0872 110.071 59.2358C110.072 55.2762 109.33 51.2653 107.77 47.3828L106.664 47.8333L105.557 48.2837C107.001 51.8782 107.684 55.5772 107.684 59.2358C107.686 70.1767 101.557 80.7834 91.2354 86.8229C90.7215 87.1232 91.2185 86.8334 91.2185 86.8334C76.1831 95.9927 62.8981 100.671 53.3864 103.061C48.6308 104.256 44.8186 104.878 42.205 105.201C40.8983 105.363 39.8912 105.45 39.2151 105.497C38.8772 105.52 38.6222 105.533 38.4538 105.54C38.3698 105.544 38.3077 105.546 38.2674 105.547L38.2237 105.548L38.2141 105.549L38.1746 105.55C37.5575 105.582 36.9412 105.598 36.3272 105.598C29.6536 105.598 23.2162 103.726 17.8412 100.325C12.4655 96.9232 8.15512 92.0022 5.69332 85.8773C5.06243 84.3068 4.57882 82.7159 4.23135 81.1161L4.22138 81.0736C4.21754 81.0617 2.38663 73.863 2.38701 62.9067C2.38663 52.2522 4.11706 38.0549 10.9049 23.4207L10.9257 23.374C14.2956 15.2228 21.1702 8.27854 30.5437 4.74311C34.7578 3.1541 39.0828 2.40262 43.3137 2.40224C48.5039 2.40224 53.5517 3.53427 58.0684 5.63777C58.6207 5.89482 58.0976 5.64549 58.0976 5.64549C73.5909 12.098 84.9058 21.6479 92.343 29.5853C96.0608 33.5534 98.8083 37.1166 100.622 39.6802C101.528 40.9619 102.201 41.994 102.645 42.7019C102.867 43.0554 103.032 43.3283 103.141 43.5105C103.195 43.6016 103.235 43.6703 103.261 43.715L103.289 43.7644L103.295 43.7752L103.296 43.7768C103.296 43.7768 104.924 46.7082 105.557 48.2837L106.664 47.8333Z" fill="#92A3A2"/>
</svg>
