<svg width="447" height="438" viewBox="0 0 447 438" fill="none" xmlns="http://www.w3.org/2000/svg">
<path opacity="0.1" fill-rule="evenodd" clip-rule="evenodd" d="M432.261 193.99L436.745 192.164C433.97 185.255 430.65 178.704 426.872 172.527C426.872 172.527 412.099 146.238 381.263 113.301C350.43 80.3718 303.521 40.7306 239.143 13.8936C236.903 12.9607 239.387 14.0219 239.387 14.0219C219.791 4.89155 197.962 0.0015653 175.532 0C157.248 0 138.563 3.25269 120.386 10.1134C79.9402 25.375 50.0415 55.471 35.3447 91.0534L35.4271 90.864C7.16811 151.845 0.00155423 210.867 0 255.122C0.00310846 300.647 7.57997 330.591 7.73695 331.22L12.423 330.009L7.69654 331.049C9.21969 338.065 11.3397 345.046 14.1031 351.932C24.8801 378.779 43.7842 400.333 67.1536 415.123C90.5292 429.92 118.378 437.998 147.218 438C149.873 438 152.534 437.931 155.202 437.793L154.954 432.928L155.042 437.8C155.642 437.789 250.974 435.907 374.678 360.493C376.726 359.244 374.599 360.537 374.599 360.537C419.238 334.399 446.064 288.298 446.072 240.234C446.073 224.176 443.067 207.909 436.745 192.164L432.261 193.99L427.777 195.817C433.63 210.395 436.398 225.397 436.398 240.234C436.406 284.606 411.565 327.621 369.737 352.115C367.654 353.333 369.669 352.158 369.669 352.158C308.737 389.304 254.898 408.278 216.352 417.97C197.079 422.815 181.63 425.338 171.038 426.65C165.743 427.306 161.662 427.658 158.921 427.847C157.552 427.941 156.519 427.995 155.836 428.024C155.496 428.038 155.244 428.048 155.081 428.053L154.904 428.057L154.865 428.059L154.705 428.063C152.204 428.193 149.706 428.258 147.218 428.258C120.173 428.259 94.0853 420.667 72.3027 406.876C50.5171 393.078 33.0491 373.12 23.0725 348.28C20.5158 341.911 18.5559 335.459 17.1478 328.971L17.1074 328.799C17.0919 328.75 9.67197 299.556 9.67352 255.122C9.67197 211.912 16.6846 154.334 44.1929 94.9838L44.2769 94.7944C57.9339 61.7369 85.7934 33.5741 123.78 19.2359C140.858 12.7916 158.385 9.74398 175.532 9.74241C196.565 9.74241 217.022 14.3334 235.326 22.8643C237.564 23.9068 235.444 22.8956 235.444 22.8956C298.232 49.0643 344.086 87.7944 374.226 119.985C389.292 136.078 400.427 150.528 407.775 160.925C411.449 166.123 414.177 170.309 415.977 173.18C416.877 174.614 417.545 175.72 417.983 176.459C418.203 176.829 418.366 177.107 418.47 177.289L418.585 177.489L418.61 177.533L418.614 177.539C418.614 177.539 425.211 189.428 427.777 195.817L432.261 193.99Z" fill="#667677"/>
</svg>
