<svg width="94" height="98" viewBox="0 0 94 98" fill="none" xmlns="http://www.w3.org/2000/svg">
<path fill-rule="evenodd" clip-rule="evenodd" d="M60.1972 56.0327C58.9192 59.0604 56.0264 60.8972 53.7359 60.1355C51.4454 59.3736 50.6246 56.3021 51.9025 53.2745C53.1801 50.2471 56.0729 48.4103 58.3635 49.1723C60.654 49.9339 61.4751 53.0054 60.1972 56.0327Z" fill="#3A53A4"/>
<path fill-rule="evenodd" clip-rule="evenodd" d="M41.7456 1.56533L41.7576 1.55392C41.7576 1.55392 20.6833 9.33526 7.86142 34.4527L7.87341 34.4413C4.0814 41.1557 2.71587 50.0761 4.72084 59.299C6.72481 68.5144 11.6881 76.1611 17.9536 80.8588C40.1059 98.9004 62.5947 97.9964 62.726 97.9912C64.0489 97.9912 65.3764 97.8657 66.7003 97.6C77.4995 95.436 84.7607 84.7985 85.4194 71.8908C85.4194 71.8908 87.0759 51.2963 75.3479 21.1003C70.1031 6.98087 57.6518 -2.03015 45.5623 0.393023C44.2344 0.658388 42.9609 1.05481 41.7456 1.56533Z" fill="#667677"/>
<path fill-rule="evenodd" clip-rule="evenodd" d="M90.2294 42.899L91.171 42.5258C90.5946 41.1294 89.9036 39.8054 89.1174 38.5574L88.2531 39.0802L87.6091 39.8495L87.6231 39.861C88.0024 40.1657 88.5465 40.1619 88.9218 39.8524C89.2969 39.5428 89.3928 39.0181 89.1506 38.6002C89.1203 38.5487 86.044 33.2469 79.6209 26.5989C73.1985 19.9529 63.4237 11.9555 49.9992 6.55395C49.5282 6.36498 48.9883 6.545 48.7337 6.97667C48.4791 7.40801 48.5888 7.95639 48.9913 8.26143L49.0046 8.27166L49.6264 7.48475L50.0504 6.58049C45.9813 4.74927 41.4486 3.76955 36.7894 3.76923C32.9543 3.76923 29.033 4.43367 25.2174 5.83451C16.7717 8.93547 10.521 15.0306 7.43947 22.2317L8.37622 22.6164L7.45677 22.1931C1.50239 34.6033 0.000326393 46.6052 0 55.5701C0.000326393 64.6888 1.5533 70.6756 1.58562 70.8019L2.57002 70.5556L1.57746 70.7673C1.89243 72.1857 2.3324 73.5971 2.90686 74.9887C5.14297 80.4063 9.07275 84.7536 13.934 87.7356C18.7966 90.7186 24.5924 92.3455 30.5997 92.3461C31.1731 92.3461 31.7489 92.3311 32.326 92.3011L32.2721 91.3076L32.2927 92.3023C32.418 92.3001 52.3117 91.8831 78.1538 76.5907C78.6287 76.3096 78.7854 75.7033 78.5044 75.2346C78.2233 74.7662 77.6065 74.6053 77.1247 74.8749L77.1237 74.8752C76.8881 75.0072 76.718 75.2224 76.6472 75.4792C76.5764 75.7356 76.6119 76.0055 76.7474 76.2361C76.8828 76.4663 77.1032 76.6319 77.3652 76.7007C77.6273 76.7694 77.9028 76.7333 78.1375 76.5999C87.4772 71.2904 93.098 61.9374 93.1 52.198C93.1003 48.9653 92.4789 45.6926 91.171 42.5258L90.2294 42.899L89.2877 43.2721C90.4967 46.2004 91.0685 49.2144 91.0685 52.198C91.0708 61.1779 85.8697 69.9034 77.1178 74.8787C76.6325 75.1543 76.4673 75.7596 76.7474 76.2361C77.0274 76.7122 77.6446 76.8759 78.1316 76.6034L78.1326 76.6028L77.6286 75.7388L77.1035 74.887C64.3748 82.4197 53.1329 86.276 45.0856 88.2498C41.0622 89.2365 37.8378 89.7526 35.6271 90.0219C34.5219 90.1565 33.6697 90.2294 33.0982 90.2684C32.8126 90.2879 32.5969 90.2991 32.4546 90.3052C32.3834 90.3084 32.3309 90.3103 32.2969 90.3112L32.26 90.3125H32.2519L32.2186 90.3138C31.6774 90.3419 31.1376 90.3557 30.5997 90.3557C24.9674 90.356 19.5398 88.8276 15.0124 86.0489C10.4841 83.269 6.85784 79.2488 4.79014 74.2424C4.25943 72.9573 3.8534 71.6546 3.56225 70.3443L3.55409 70.3098C3.55083 70.2992 2.03114 64.4679 2.03147 55.5701C2.03114 46.8201 3.49991 35.1152 9.29535 23.0398L9.31297 23.0011C12.1741 16.315 17.998 10.6107 25.9303 7.69835C29.5151 6.38193 33.1935 5.75969 36.7894 5.75969C41.1578 5.75937 45.4039 6.67929 49.2024 8.38901C49.6702 8.59941 50.2283 8.43186 50.4949 8.00019C50.7619 7.56885 50.6552 7.00672 50.2482 6.69784L50.2348 6.68761L49.6134 7.47452L49.2272 8.39509C62.3176 13.6611 71.8698 21.472 78.1457 27.9671C81.2833 31.2142 83.6003 34.1307 85.1295 36.2296C85.8939 37.2787 86.4612 38.1235 86.8359 38.7025C87.0229 38.9922 87.1619 39.2154 87.253 39.3647C87.2987 39.4392 87.3323 39.4952 87.3539 39.532L87.3777 39.5723L87.3829 39.5812L87.3839 39.5825L88.2671 39.0913L88.9111 38.322L88.897 38.3105C88.5132 38.0019 87.9583 38.0106 87.5843 38.331C87.2106 38.651 87.128 39.1885 87.3888 39.6026C88.117 40.7585 88.7554 41.9825 89.2877 43.2721L90.2294 42.899Z" fill="#4FB1E3"/>
<path fill-rule="evenodd" clip-rule="evenodd" d="M13.6512 69.7308L11.3999 62.1923H12.3614L13.4361 65.9058C13.733 66.9235 13.989 67.8407 14.1731 68.7244H14.1938C14.3882 67.8517 14.6747 66.9011 14.9815 65.9171L16.1483 62.1923H17.0999L14.6339 69.7308H13.6512Z" fill="#FEFEFE"/>
<path fill-rule="evenodd" clip-rule="evenodd" d="M26.2989 66.1964H23.6723V68.9146H26.5998V69.7308H22.7998V62.1923H26.4493V63.0081H23.6723V65.3908H26.2989V66.1964Z" fill="#FEFEFE"/>
<path fill-rule="evenodd" clip-rule="evenodd" d="M34.2002 69.7308V62.1923H34.9137L36.5357 66.0063C36.9111 66.8901 37.204 67.6843 37.4443 68.4556L37.4594 68.4446C37.3994 67.4383 37.3843 66.5211 37.3843 65.3462V62.1923H38.0002V69.7308H37.3391L35.7323 65.9058C35.3793 65.0668 35.0415 64.2054 34.7861 63.3889L34.7634 63.4003C34.801 64.3508 34.8161 65.257 34.8161 66.5097V69.7308H34.2002Z" fill="#FEFEFE"/>
<path fill-rule="evenodd" clip-rule="evenodd" d="M48.1728 62.1923V66.5829C48.1728 68.245 48.6851 68.949 49.3733 68.949C50.138 68.949 50.6272 68.2225 50.6272 66.5829V62.1923H51.3V66.5171C51.3 68.7951 50.4668 69.7308 49.3505 69.7308C48.2952 69.7308 47.5 68.8613 47.5 66.5612V62.1923H48.1728Z" fill="#FEFEFE"/>
<path fill-rule="evenodd" clip-rule="evenodd" d="M62.3994 66.1964H59.772V68.9146H62.6999V69.7308H58.8999V62.1923H62.5498V63.0081H59.772V65.3908H62.3994V66.1964Z" fill="#FEFEFE"/>
<path fill-rule="evenodd" clip-rule="evenodd" d="M70.5046 68.4725C70.8683 68.7331 71.3988 68.9496 71.9575 68.9496C72.7867 68.9496 73.2706 68.4401 73.2706 67.7023C73.2706 67.0194 72.9355 66.6288 72.0878 66.2493C71.0636 65.8259 70.4302 65.2078 70.4302 64.1774C70.4302 63.0383 71.2402 62.1923 72.4606 62.1923C73.103 62.1923 73.5689 62.3661 73.8485 62.5502L73.6245 63.3199C73.4198 63.19 73.0004 62.9731 72.4324 62.9731C71.5757 62.9731 71.2496 63.5699 71.2496 64.0687C71.2496 64.752 71.6313 65.0885 72.4977 65.4787C73.5595 65.9562 74.0998 66.5526 74.0998 67.6265C74.0998 68.7545 73.3826 69.7308 71.9019 69.7308C71.2962 69.7308 70.6349 69.525 70.2998 69.2643L70.5046 68.4725Z" fill="#FEFEFE"/>
<path fill-rule="evenodd" clip-rule="evenodd" d="M57.3298 58.0928H63.1485C65.3188 58.0928 67.2108 57.8048 68.8252 57.2275C70.4389 56.6513 71.7754 55.8957 72.8336 54.9613C73.8914 54.0272 74.685 52.9599 75.2139 51.7606C75.7432 50.5612 76.0074 49.3273 76.0074 48.0577C76.0074 46.7898 75.7432 45.5552 75.2139 44.3551C74.685 43.1558 73.8914 42.0889 72.8336 41.1544C71.7754 40.2196 70.4389 39.4644 68.8252 38.8875C67.2108 38.3112 65.3188 38.0226 63.1485 38.0226H57.3298V58.0928ZM54.3999 35.8077H63.9627C65.7531 35.8077 67.5501 36.0621 69.3545 36.5695C71.1582 37.0773 72.7859 37.8443 74.237 38.8704C75.688 39.8971 76.8619 41.1775 77.7571 42.7116C78.6523 44.2461 79.0999 46.0284 79.0999 48.0577C79.0999 50.1115 78.6523 51.899 77.7571 53.4212C76.8619 54.9442 75.688 56.219 74.237 57.245C72.7859 58.2721 71.1582 59.0391 69.3545 59.5462C67.5501 60.054 65.7531 60.3077 63.9627 60.3077H54.3999V35.8077Z" fill="#FEFEFE"/>
<path fill-rule="evenodd" clip-rule="evenodd" d="M35.8922 58.162H41.2748C42.3194 58.162 43.3161 58.0753 44.2673 57.9027C45.2174 57.7297 46.0478 57.4533 46.7578 57.0724C47.4671 56.6915 48.0362 56.1956 48.4649 55.584C48.8929 54.9732 49.1078 54.2407 49.1078 53.3866C49.1078 51.7724 48.4715 50.5668 47.1996 49.7707C45.9274 48.9747 44.1265 48.5766 41.7969 48.5766H35.8922V58.162ZM35.8922 46.5351H41.7167C42.4128 46.5351 43.1155 46.4662 43.8255 46.3275C44.5347 46.1891 45.1842 45.9529 45.7734 45.6184C46.3623 45.284 46.8381 44.8395 47.1996 44.2859C47.5612 43.7321 47.7418 43.052 47.7418 42.2444C47.7418 41.4602 47.5612 40.7969 47.1996 40.2542C46.8381 39.7133 46.3495 39.2684 45.7333 38.9221C45.117 38.5765 44.3939 38.3283 43.5643 38.1784C42.7342 38.0285 41.8502 37.9534 40.9133 37.9534H35.8922V46.5351ZM33 35.8077H41.4755C42.5463 35.8077 43.631 35.9066 44.7292 36.1023C45.8271 36.2983 46.8111 36.6335 47.682 37.1056C48.5514 37.5787 49.2614 38.2186 49.8105 39.0262C50.3592 39.8342 50.6344 40.8487 50.6344 42.0718C50.6344 43.3637 50.1759 44.4879 49.2606 45.4451C48.3457 46.4026 47.1205 47.0313 45.5867 47.3315V47.4003C47.4304 47.5849 48.96 48.2024 50.1759 49.2518C51.3915 50.3019 52 51.726 52 53.5253C52 54.5405 51.7526 55.469 51.2576 56.3105C50.7633 57.1531 50.0621 57.8677 49.1534 58.4562C48.2446 59.0444 47.1356 59.5004 45.8263 59.823C44.5174 60.1466 43.0472 60.3077 41.4176 60.3077H33V35.8077Z" fill="#FEFEFE"/>
<path fill-rule="evenodd" clip-rule="evenodd" d="M13.8922 58.162H19.2748C20.3194 58.162 21.3161 58.0753 22.2673 57.9027C23.2174 57.7297 24.0478 57.4533 24.7578 57.0724C25.4671 56.6915 26.0362 56.1956 26.4649 55.584C26.8929 54.9732 27.1078 54.2407 27.1078 53.3866C27.1078 51.7724 26.4715 50.5668 25.1996 49.7707C23.9274 48.9747 22.1265 48.5766 19.7969 48.5766H13.8922V58.162ZM13.8922 46.5351H19.7167C20.4128 46.5351 21.1155 46.4662 21.8255 46.3275C22.5347 46.1891 23.1842 45.9529 23.7734 45.6184C24.3623 45.284 24.8381 44.8395 25.1996 44.2859C25.5612 43.7321 25.7418 43.052 25.7418 42.2444C25.7418 41.4602 25.5612 40.7969 25.1996 40.2542C24.8381 39.7133 24.3495 39.2684 23.7333 38.9221C23.117 38.5765 22.3939 38.3283 21.5643 38.1784C20.7342 38.0285 19.8502 37.9534 18.9133 37.9534H13.8922V46.5351ZM11 35.8077H19.4755C20.5463 35.8077 21.631 35.9066 22.7292 36.1023C23.8271 36.2983 24.8111 36.6335 25.682 37.1056C26.5514 37.5787 27.2614 38.2186 27.8105 39.0262C28.3592 39.8342 28.6344 40.8487 28.6344 42.0718C28.6344 43.3637 28.1759 44.4879 27.2606 45.4451C26.3457 46.4026 25.1205 47.0313 23.5867 47.3315V47.4003C25.4304 47.5849 26.96 48.2024 28.1759 49.2518C29.3915 50.3019 30 51.726 30 53.5253C30 54.5405 29.7526 55.469 29.2576 56.3105C28.7633 57.1531 28.0621 57.8677 27.1534 58.4562C26.2446 59.0444 25.1356 59.5004 23.8263 59.823C22.5174 60.1466 21.0472 60.3077 19.4176 60.3077H11V35.8077Z" fill="#FEFEFE"/>
</svg>
